# xmcd
#
# Track frame offsets: 
#        182
#        32447
#        68737
#        95865
#        116025
#        148555
#        181962
#        220372
#        242917
#        275810
#        301010
#
# Disc length: 4638 seconds
#
# Revision: 1
# Processed by: cddbd v1.5.2PL0 Copyright (c) Steve Scherf et al.
# Submitted via: ExactAudioCopy v1.0b1
#
DISCID=a3121c0b
DTITLE=Various Artist - Solar System Vol. 3
DYEAR=1993
DGENRE=Solar
TTITLE0=Whispers - I Can Make It Better
TTITLE1=Midnight Star - No Parking (On The Dance Floor)
TTITLE2=Dynasty - Do Me Right
TTITLE3=Collage - Winners And Losers
TTITLE4=Dyanasty - I Don't Want To Be A Freak (But I Can't Help Myself
TTITLE4=)
TTITLE5=Calloway - I Wanna Be Rich
TTITLE6=Midnight Star - Freak-A-Zoid
TTITLE7=Sylvers - Come Back Lover
TTITLE8=Shalamar - A Night To Remember [US Remix]
TTITLE9=Shalamar - Take That To The Bank
TTITLE10=Various Artist - Voyage Into The Land Of Funk Mega Mix Part 
TTITLE10=1
EXTD=
EXTT0=
EXTT1=
EXTT2=
EXTT3=
EXTT4=
EXTT5=
EXTT6=
EXTT7=
EXTT8=
EXTT9=
EXTT10=
PLAYORDER=
